<svg width="80" height="80" viewBox="0 0 80 80" fill="none" xmlns="http://www.w3.org/2000/svg">
<path d="M31.6981 11.2821H39.7484V24.1026H20.1258V11.2821H21.1321V22.0513H31.6981V11.2821Z" fill="white"/>
<path d="M39.7484 40V25.641H20.1258V40H21.1321V27.6923H31.6981V40H39.7484Z" fill="white"/>
<path d="M13.0818 25.641V40H18.6164V25.641H13.0818Z" fill="white"/>
<path d="M66.4151 48.2051L62.1384 53.5897C60.1258 50.9231 57.1069 50.2564 55.8491 50.2564V43.5897C61.6855 43.3846 65.0734 46.3248 66.4151 48.2051Z" fill="white"/>
<path d="M54.3396 50.2564V43.5897C33.7107 43.5897 35.2201 73.3333 54.3396 73.3333V66.6667C42.5157 64.359 45.283 49.7436 54.3396 50.2564Z" fill="white"/>
<path d="M55.8491 73.3333V66.6667C58.8679 66.6667 61.0482 64.7009 61.8868 63.5897C62.3899 64.1026 63.7987 65.7436 66.4151 68.2051C63.3962 72.5128 58.2809 73.3333 55.8491 73.3333Z" fill="white"/>
<path d="M19.6226 57.4359V42.0513H19.1195V57.9487H37.2327V57.4359H19.6226Z" fill="white"/>
<path d="M47.7987 57.9487V57.4359H54.8428V51.2821H55.3459V57.4359H80V57.9487H55.3459V65.641H54.8428V57.9487H47.7987Z" fill="white"/>
<path d="M55.3459 41.5385H54.8428V25.1282H41.2579V24.6154H55.3459V41.5385Z" fill="white"/>
<path d="M10.0629 25.1282V24.6154H0V25.1282H10.0629Z" fill="white"/>
<path d="M19.6226 9.74359H19.1195V0H19.6226V9.74359Z" fill="white"/>
<path d="M13.0818 24.1026V11.2821H18.6164V24.1026H13.0818Z" fill="white"/>
<path d="M55.3459 74.359H54.8428V80H55.3459V74.359Z" fill="white"/>
</svg>
