<svg width="957" height="914" viewBox="0 0 957 914" fill="none" xmlns="http://www.w3.org/2000/svg">
<path d="M717.077 808.881H955.769V657.757M955.769 349.858H890.799M955.769 349.858V427.539M955.769 349.858V249.579M306.074 50.4333V1L495.333 1C485.164 25.8579 507.103 47.1377 519.343 54.6704L564.54 1L611.148 1V105.516M306.074 50.4333L460.023 50.4333M306.074 50.4333L460.023 105.516M306.074 50.4333V105.516M460.023 50.4333V105.516M460.023 50.4333L306.074 105.516M460.023 516.519H306.074M460.023 516.519L460.023 458.611M460.023 516.519L306.074 458.611L306.074 516.519M306.074 516.519L460.023 458.611M460.023 458.611H310.311M460.023 458.611V419.064L399.291 372.456C405.882 359.744 427.256 336.864 460.023 347.033V279.239M1 458.611L1 105.516L306.074 105.516M1 458.611H22.1857M1 458.611L1 476.972M22.1857 458.611L22.1857 412.003H68.7942V458.611M22.1857 458.611H68.7942M68.7942 458.611H81.5057M264.409 458.611V412.003H310.311V458.611M264.409 458.611H310.311M264.409 458.611H249.579M249.579 458.611H81.5057M249.579 458.611V419.064M81.5057 458.611V419.064M81.5057 419.064L81.5057 253.816H249.579L249.579 419.064M81.5057 419.064H249.579M460.023 279.239V105.516M460.023 279.239H383.049L334.322 334.322C327.26 328.672 299.012 310.311 306.074 279.239V105.516M611.148 157.774L793.345 157.774M611.148 157.774L793.345 105.516M611.148 157.774V105.516M611.148 157.774V183.197L669.056 229.806C663.877 240.163 645.045 259.466 611.148 253.816V349.858H762.273M793.345 157.774V105.516M793.345 157.774L611.148 105.516M793.345 105.516L955.769 105.516V249.579M793.345 105.516L611.148 105.516M460.023 105.516L306.074 105.516M717.077 530.642V349.858L774.984 530.642M717.077 530.642H774.984M717.077 530.642L774.984 349.858M717.077 530.642V544.766L774.984 585.725C767.451 601.732 742.499 619.622 717.077 611.148M774.984 530.642V349.858M774.984 349.858H890.799M774.984 349.858H762.273M890.799 349.858V427.539M955.769 657.757H890.799V580.076M955.769 657.757V580.076M890.799 580.076H955.769M890.799 580.076V427.539M955.769 580.076V427.539M890.799 427.539H955.769M762.273 349.858V249.579L955.769 249.579M347.033 913.397H717.077V660.581M347.033 913.397H201.558M347.033 913.397V869.614M347.033 913.397L201.558 869.614M717.077 660.581H575.839M717.077 660.581V611.148M717.077 660.581L575.839 611.148M575.839 660.581V611.148M575.839 660.581L717.077 611.148M575.839 660.581H561.715L517.931 721.314C504.278 717.547 479.232 700.128 488.271 660.581H347.033V869.614M575.839 611.148H717.077M1 476.972H51.8457L51.8457 762.273H1M1 476.972L1 762.273M1 762.273L1 913.397H201.558M201.558 913.397V869.614M201.558 913.397L347.033 869.614M201.558 869.614H347.033" stroke="white" stroke-opacity="0.2" stroke-linecap="round" stroke-linejoin="round"/>
<rect x="788.196" y="268.44" width="151.537" height="63.9695" rx="11" stroke="white" stroke-opacity="0.2"/>
<rect x="751.474" y="694.979" width="137.413" height="63.9695" rx="11" stroke="white" stroke-opacity="0.2"/>
<rect x="637.179" y="302.033" width="63.9695" height="44.1962" rx="7.5" stroke="white" stroke-opacity="0.2"/>
<rect x="660.028" y="329.569" width="18.7733" height="13.1238" rx="6.5619" stroke="white" stroke-opacity="0.2"/>
<rect x="906.851" y="450.303" width="47.0209" height="78.0933" rx="2.5" stroke="white" stroke-opacity="0.2"/>
<rect x="919.071" y="481.234" width="30.0724" height="15.9486" rx="2.5" stroke="white" stroke-opacity="0.2"/>
<circle cx="798.995" cy="677.53" r="13.6238" stroke="white" stroke-opacity="0.2"/>
<circle cx="798.995" cy="779.221" r="13.6238" stroke="white" stroke-opacity="0.2"/>
<circle cx="841.366" cy="677.53" r="13.6238" stroke="white" stroke-opacity="0.2"/>
<circle cx="841.366" cy="779.222" r="13.6238" stroke="white" stroke-opacity="0.2"/>
</svg>
