<svg width="94" height="92" viewBox="0 0 94 92" fill="none" xmlns="http://www.w3.org/2000/svg">
<path d="M37.1482 12.9191H46.5826V27.5998H23.5861V12.9191H24.7654V25.2509H37.1482V12.9191Z" fill="#0E0E1C"/>
<path d="M46.5826 45.8039V29.3615H23.5861V45.8039H24.7654V31.7104H37.1482V45.8039H46.5826Z" fill="#0E0E1C"/>
<path d="M15.331 29.3615V45.8039H21.8172V29.3615H15.331Z" fill="#0E0E1C"/>
<path d="M77.8343 55.1996L72.8222 61.3655C70.4636 58.3119 66.9257 57.5485 65.4515 57.5485V49.9145C72.2915 49.6796 76.2618 53.0464 77.8343 55.1996Z" fill="#0E0E1C"/>
<path d="M63.6826 57.5485V49.9145C39.5068 49.9145 41.2757 83.9739 63.6826 83.9739V76.3399C49.8257 73.6973 53.0688 56.9613 63.6826 57.5485Z" fill="#0E0E1C"/>
<path d="M65.4515 83.9739V76.3399C68.9895 76.3399 71.5446 74.0888 72.5274 72.8165C73.117 73.4037 74.7681 75.2829 77.8343 78.1016C74.2963 83.0343 68.3015 83.9739 65.4515 83.9739Z" fill="#0E0E1C"/>
<path d="M22.9965 65.7697V48.1528H22.4068V66.357H43.6344V65.7697H22.9965Z" fill="#0E0E1C"/>
<path d="M56.0171 66.357V65.7697H64.2722V58.723H64.8619V65.7697H93.7549V66.357H64.8619V75.1654H64.2722V66.357H56.0171Z" fill="#0E0E1C"/>
<path d="M64.8619 47.5656H64.2722V28.7743H48.3516V28.187H64.8619V47.5656Z" fill="#0E0E1C"/>
<path d="M11.7931 28.7743V28.187H0V28.7743H11.7931Z" fill="#0E0E1C"/>
<path d="M22.9965 11.1574H22.4068V0H22.9965V11.1574Z" fill="#0E0E1C"/>
<path d="M15.331 27.5998V12.9191H21.8172V27.5998H15.331Z" fill="#0E0E1C"/>
<path d="M64.8619 85.1483H64.2722V91.6078H64.8619V85.1483Z" fill="#0E0E1C"/>
</svg>
