<svg width="13" height="21" viewBox="0 0 13 21" fill="none" xmlns="http://www.w3.org/2000/svg">
<path d="M13 6.5C13 10.0899 10.0899 13 6.5 13C2.91015 13 0 10.0899 0 6.5C0 2.91015 2.91015 0 6.5 0C10.0899 0 13 2.91015 13 6.5ZM4.26959 6.5C4.26959 7.73182 5.26818 8.73041 6.5 8.73041C7.73182 8.73041 8.73041 7.73182 8.73041 6.5C8.73041 5.26818 7.73182 4.26959 6.5 4.26959C5.26818 4.26959 4.26959 5.26818 4.26959 6.5Z" fill="#0E0E1C"/>
<path d="M6.64227 20.4345L0.786011 9.59814H12.2124L6.64227 20.4345Z" fill="#0E0E1C"/>
</svg>
